<svg width="242" height="60" viewBox="0 0 242 60" fill="none" xmlns="http://www.w3.org/2000/svg">
<path d="M19.678 45.78C30.718 45.78 38.458 36.96 38.458 22.86C38.458 8.76 30.718 0.179998 19.678 0.179998C8.63797 0.179998 0.897969 8.76 0.897969 22.86C0.897969 36.96 8.63797 45.78 19.678 45.78ZM19.678 40.92C11.758 40.92 6.59797 33.84 6.59797 22.86C6.59797 11.82 11.758 5.04 19.678 5.04C27.538 5.04 32.758 11.82 32.758 22.86C32.758 33.84 27.538 40.92 19.678 40.92ZM47.4692 45H52.9292V21.36C56.2292 18.06 58.5092 16.38 61.8692 16.38C66.1892 16.38 68.0492 18.96 68.0492 25.08V45H73.5092V24.36C73.5092 16.02 70.3892 11.58 63.5492 11.58C59.1092 11.58 55.7492 14.04 52.6292 17.1H52.4492L51.9692 12.42H47.4692V45ZM97.2889 45.78C101.729 45.78 105.209 44.28 108.089 42.42L106.109 38.82C103.709 40.44 101.129 41.4 97.9489 41.4C91.7689 41.4 87.5089 36.96 87.1489 30H109.109C109.229 29.22 109.349 28.08 109.349 26.88C109.349 17.58 104.669 11.58 96.3889 11.58C88.8289 11.58 81.6889 18.18 81.6889 28.74C81.6889 39.48 88.6489 45.78 97.2889 45.78ZM87.0889 26.04C87.7489 19.68 91.8289 15.96 96.4489 15.96C101.549 15.96 104.549 19.5 104.549 26.04H87.0889ZM136.13 45H142.73L149.27 18.48C149.99 15 150.77 11.82 151.49 8.46H151.73C152.45 11.82 153.11 15 153.89 18.48L160.55 45H167.21L176.33 0.959998H170.99L166.37 24.96C165.53 29.64 164.69 34.38 163.85 39.18H163.55C162.53 34.38 161.51 29.64 160.43 24.96L154.31 0.959998H149.21L143.15 24.96C142.07 29.7 140.99 34.44 139.97 39.18H139.73C138.89 34.44 137.99 29.7 137.15 24.96L132.53 0.959998H126.83L136.13 45ZM189.911 45.78C193.931 45.78 197.591 43.68 200.711 41.1H200.891L201.371 45H205.871V24.96C205.871 16.92 202.511 11.58 194.591 11.58C189.371 11.58 184.751 13.92 181.751 15.84L183.911 19.62C186.491 17.88 189.911 16.14 193.691 16.14C199.031 16.14 200.411 20.16 200.411 24.36C186.551 25.92 180.371 29.46 180.371 36.54C180.371 42.42 184.451 45.78 189.911 45.78ZM191.471 41.4C188.231 41.4 185.711 39.9 185.711 36.18C185.711 31.98 189.431 29.28 200.411 27.96V37.08C197.231 39.9 194.651 41.4 191.471 41.4ZM216.818 59.04C223.298 59.04 226.718 54.12 228.938 47.7L241.238 12.42H235.898L230.078 30.54C229.178 33.42 228.218 36.72 227.318 39.66H227.018C225.998 36.72 224.858 33.36 223.898 30.54L217.238 12.42H211.538L224.618 45.06L223.898 47.52C222.578 51.54 220.238 54.54 216.518 54.54C215.678 54.54 214.718 54.24 214.058 54L212.978 58.38C213.998 58.8 215.258 59.04 216.818 59.04Z" fill="#101010"/>
</svg>
