<svg xmlns="http://www.w3.org/2000/svg" width="346" height="60" fill="none" viewBox="0 0 346 60">
    <path fill="#000" d="M0 20C0 10.572 0 5.858 2.929 2.929 5.858 0 10.572 0 20 0h306c9.428 0 14.142 0 17.071 2.929C346 5.858 346 10.572 346 20v20c0 9.428 0 14.142-2.929 17.071C340.142 60 335.428 60 326 60H20c-9.428 0-14.142 0-17.071-2.929C0 54.142 0 49.428 0 40V20z"/>
    <rect width="184" height="59" x="80.5" y=".5" fill="#000" rx="10"/>
    <path fill="#000" d="M0 0H24V24H0z" transform="translate(95.5 15.5)"/>
    <path fill="#fff" d="M116.781 33.924c-.348.803-.76 1.543-1.237 2.223-.65.927-1.183 1.569-1.593 1.925-.636.585-1.317.885-2.047.902-.524 0-1.156-.15-1.891-.452-.738-.3-1.416-.45-2.036-.45-.65 0-1.348.15-2.093.45-.748.303-1.349.46-1.809.476-.7.03-1.398-.278-2.094-.926-.444-.387-1-1.052-1.666-1.993-.714-1.005-1.302-2.17-1.762-3.5-.493-1.435-.74-2.825-.74-4.17 0-1.542.333-2.871 1-3.985.525-.895 1.222-1.6 2.095-2.12.873-.517 1.817-.781 2.832-.798.556 0 1.285.172 2.191.51.903.339 1.483.51 1.737.51.19 0 .835-.2 1.927-.601 1.033-.372 1.904-.526 2.618-.465 1.936.156 3.389.919 4.356 2.293-1.731 1.049-2.587 2.517-2.57 4.401.016 1.468.548 2.69 1.595 3.659.474.45 1.004.798 1.593 1.045-.128.37-.263.725-.406 1.066zm-4.438-17.464c0 1.15-.421 2.224-1.258 3.218-1.011 1.182-2.234 1.865-3.56 1.757-.016-.138-.026-.283-.026-.435 0-1.105.48-2.287 1.334-3.253.426-.489.968-.896 1.626-1.22.656-.32 1.276-.497 1.859-.527.018.154.025.308.025.46zM139.26 30.5c.48-1.6.94-3.22 1.36-4.9h.1c.44 1.66.88 3.3 1.38 4.9l.58 1.98h-4.02l.6-1.98zm-4.76 8h2.36l1.26-4.2h5.12l1.24 4.2h2.46l-4.88-14.74h-2.68L134.5 38.5zm14.181 4.46h2.3V39.4l-.08-1.88c.94.8 1.92 1.24 2.9 1.24 2.48 0 4.74-2.16 4.74-5.94 0-3.38-1.56-5.6-4.34-5.6-1.24 0-2.44.68-3.4 1.48h-.06l-.18-1.2h-1.88v15.46zm4.68-6.1c-.68 0-1.52-.26-2.38-1v-5.38c.92-.9 1.74-1.34 2.6-1.34 1.84 0 2.58 1.42 2.58 3.72 0 2.58-1.2 4-2.8 4zm7.918 6.1h2.3V39.4l-.08-1.88c.94.8 1.92 1.24 2.9 1.24 2.48 0 4.74-2.16 4.74-5.94 0-3.38-1.56-5.6-4.34-5.6-1.24 0-2.44.68-3.4 1.48h-.06l-.18-1.2h-1.88v15.46zm4.68-6.1c-.68 0-1.52-.26-2.38-1v-5.38c.92-.9 1.74-1.34 2.6-1.34 1.84 0 2.58 1.42 2.58 3.72 0 2.58-1.2 4-2.8 4zm10.198 1.9c.58 0 .96-.08 1.24-.18l-.3-1.74c-.2.04-.28.04-.38.04-.28 0-.54-.22-.54-.84V22.56h-2.3v13.36c0 1.78.62 2.84 2.28 2.84zm8.257 0c1.44 0 2.7-.48 3.72-1.16l-.8-1.46c-.8.52-1.64.82-2.62.82-1.9 0-3.22-1.26-3.4-3.36h7.14c.06-.28.12-.72.12-1.18 0-3.1-1.58-5.2-4.5-5.2-2.56 0-5.02 2.22-5.02 5.78 0 3.64 2.38 5.76 5.36 5.76zm-3.12-6.76c.22-1.92 1.44-2.98 2.82-2.98 1.6 0 2.46 1.1 2.46 2.98h-5.28zm22.801 4.22v-3.08h5.64v-1.66h-10.82v-2.52h10.42v-5.72h-12.48v1.66h10.44v2.42h-10.4v5.82h5.14v3.08h-7.12v1.7h16.36v-1.7h-7.18zm21.398-10.5c0 2.34 0 5-.7 8.56l2.08.22c.68-3.82.68-6.36.68-8.78v-1.94h-12.5v1.66h10.44v.28zm-12.18 10.1v1.7h16.34v-1.7h-16.34zm33.278-13.84h-2.06V35.1h2.06V21.98zm-12.52 5.72c0-1.66 1.18-2.74 2.78-2.74 1.58 0 2.78 1.08 2.78 2.74 0 1.64-1.2 2.74-2.78 2.74-1.6 0-2.78-1.1-2.78-2.74zm7.56 0c0-2.64-2.06-4.52-4.78-4.52s-4.8 1.88-4.8 4.52c0 2.62 2.08 4.52 4.8 4.52 2.72 0 4.78-1.9 4.78-4.52zm-4.76 10.32v-4.24h-2.08v5.92h12.32v-1.68h-10.24z"/>
</svg>
