<svg width="96" height="76" viewBox="0 0 96 76" fill="none" xmlns="http://www.w3.org/2000/svg">
    <path
        d="M81.9999 1.35998e-05H14C8.49046 -0.00898641 4.0167 4.45014 4.0077 9.95984C4.00695 10.4082 4.03639 10.8559 4.09602 11.3001C4.23777 12.3955 5.24071 13.1685 6.33627 13.0268C6.60308 12.9923 6.86015 12.9043 7.09208 12.768C7.97446 12.2547 8.97927 11.9893 10 12H24.2401C26.81 12.0072 29.0932 13.6416 29.9281 16.072L30.268 17.1679C31.6443 21.2417 35.4601 23.9882 39.7601 23.9999H86.0001C87.0489 24.0008 88.0791 24.2766 88.9881 24.7999C89.2952 24.979 89.6445 25.0727 90 25.072C91.1046 25.072 92.0001 24.1765 92.0001 23.0719V9.99996C92.0001 4.47714 87.5229 1.35998e-05 81.9999 1.35998e-05Z"
        fill="#0F77F0" />
    <path
        d="M91.0121 21.3513C89.4907 20.4646 87.761 19.9981 86 19.9992H39.76C37.1901 19.9921 34.9069 18.3576 34.072 15.9273L33.732 14.8313C32.3558 10.7575 28.54 8.01101 24.24 7.99938H9.99995C8.28151 7.9827 6.59045 8.42895 5.10394 9.29145C1.9515 11.0556 -0.000937164 14.3866 3.37468e-07 17.9993V65.9994C3.37468e-07 71.5222 4.47713 75.9993 9.99995 75.9993H86C91.5228 75.9993 95.9999 71.5222 95.9999 65.9994V29.9993C96.0123 26.4297 94.1081 23.1282 91.0121 21.3513Z"
        fill="#509EFF" />
</svg>
