<svg xmlns="http://www.w3.org/2000/svg" width="346" height="60" fill="none" viewBox="0 0 346 60">
    <path fill="#fff" d="M0 20C0 10.572 0 5.858 2.929 2.929 5.858 0 10.572 0 20 0h306c9.428 0 14.142 0 17.071 2.929C346 5.858 346 10.572 346 20v20c0 9.428 0 14.142-2.929 17.071C340.142 60 335.428 60 326 60H20c-9.428 0-14.142 0-17.071-2.929C0 54.142 0 49.428 0 40V20z"/>
    <rect width="197" height="59" x="74" y=".5" fill="#fff" rx="10"/>
    <path fill="#fff" d="M0 0H24V24H0z" transform="translate(89 15.5)"/>
    <path fill="#4285F4" fill-rule="evenodd" d="M112.04 27.761c0-.815-.073-1.6-.209-2.352H101v4.449h6.189c-.267 1.437-1.077 2.655-2.295 3.47v2.886h3.717c2.174-2.002 3.429-4.95 3.429-8.453z" clip-rule="evenodd"/>
    <path fill="#34A853" fill-rule="evenodd" d="M101 39c3.105 0 5.708-1.03 7.611-2.786l-3.717-2.886c-1.03.69-2.347 1.098-3.894 1.098-2.995 0-5.53-2.023-6.435-4.741h-3.842v2.98C92.615 36.422 96.504 39 101 39z" clip-rule="evenodd"/>
    <path fill="#FBBC05" fill-rule="evenodd" d="M94.565 29.685c-.23-.69-.36-1.427-.36-2.185s.13-1.495.36-2.185v-2.98h-3.842c-.779 1.553-1.223 3.31-1.223 5.165 0 1.856.444 3.612 1.223 5.165l3.842-2.98z" clip-rule="evenodd"/>
    <path fill="#EA4335" fill-rule="evenodd" d="M101 20.574c1.688 0 3.204.58 4.396 1.72l3.298-3.299C106.703 17.14 104.1 16 101 16c-4.496 0-8.385 2.577-10.277 6.335l3.842 2.98c.904-2.718 3.44-4.741 6.435-4.741z" clip-rule="evenodd"/>
    <path fill="#000" fill-opacity=".54" d="M135.94 38.76c2.02 0 3.68-.74 4.66-1.72v-6.38h-5.02v1.9h2.92v3.46c-.52.46-1.42.72-2.32.72-3.04 0-4.66-2.14-4.66-5.64 0-3.46 1.82-5.58 4.56-5.58 1.42 0 2.32.58 3.06 1.32l1.24-1.48c-.9-.94-2.3-1.86-4.38-1.86-3.9 0-6.86 2.88-6.86 7.68 0 4.82 2.88 7.58 6.8 7.58zm12.223 0c2.72 0 5.18-2.1 5.18-5.76 0-3.66-2.46-5.78-5.18-5.78-2.72 0-5.18 2.12-5.18 5.78s2.46 5.76 5.18 5.76zm0-1.88c-1.72 0-2.8-1.54-2.8-3.88 0-2.32 1.08-3.88 2.8-3.88 1.74 0 2.82 1.56 2.82 3.88 0 2.34-1.08 3.88-2.82 3.88zm12.286 1.88c2.72 0 5.18-2.1 5.18-5.76 0-3.66-2.46-5.78-5.18-5.78-2.72 0-5.18 2.12-5.18 5.78s2.46 5.76 5.18 5.76zm0-1.88c-1.72 0-2.8-1.54-2.8-3.88 0-2.32 1.08-3.88 2.8-3.88 1.74 0 2.82 1.56 2.82 3.88 0 2.34-1.08 3.88-2.82 3.88zm11.645 6.56c3.52 0 5.76-1.72 5.76-3.84 0-1.88-1.36-2.68-3.96-2.68h-2.02c-1.4 0-1.84-.42-1.84-1.08 0-.54.24-.84.6-1.16.48.22 1.04.34 1.54.34 2.3 0 4.12-1.38 4.12-3.78 0-.84-.3-1.58-.72-2.02h2.1V27.5h-3.9c-.42-.16-.98-.28-1.6-.28-2.28 0-4.26 1.46-4.26 3.94 0 1.32.7 2.36 1.46 2.94v.08c-.62.44-1.24 1.18-1.24 2.04 0 .9.44 1.48 1 1.82v.1c-1.02.62-1.6 1.48-1.6 2.4 0 1.92 1.92 2.9 4.56 2.9zm.08-9.9c-1.14 0-2.08-.9-2.08-2.38s.92-2.32 2.08-2.32c1.16 0 2.08.86 2.08 2.32 0 1.48-.94 2.38-2.08 2.38zm.26 8.38c-1.82 0-2.94-.64-2.94-1.72 0-.56.28-1.12.94-1.6.46.1.96.16 1.48.16h1.66c1.34 0 2.06.28 2.06 1.2 0 1.02-1.28 1.96-3.2 1.96zm9.742-3.16c.58 0 .96-.08 1.24-.18l-.3-1.74c-.2.04-.28.04-.38.04-.28 0-.54-.22-.54-.84V22.56h-2.3v13.36c0 1.78.62 2.84 2.28 2.84zm8.257 0c1.44 0 2.7-.48 3.72-1.16l-.8-1.46c-.8.52-1.64.82-2.62.82-1.9 0-3.22-1.26-3.4-3.36h7.14c.06-.28.12-.72.12-1.18 0-3.1-1.58-5.2-4.5-5.2-2.56 0-5.02 2.22-5.02 5.78 0 3.64 2.38 5.76 5.36 5.76zm-3.12-6.76c.22-1.92 1.44-2.98 2.82-2.98 1.6 0 2.46 1.1 2.46 2.98h-5.28zm22.801 4.22v-3.08h5.64v-1.66h-10.82v-2.52h10.42v-5.72h-12.48v1.66h10.44v2.42h-10.4v5.82h5.14v3.08h-7.12v1.7h16.36v-1.7h-7.18zm21.399-10.5c0 2.34 0 5-.701 8.56l2.081.22c.68-3.82.68-6.36.68-8.78v-1.94h-12.5v1.66h10.44v.28zm-12.18 10.1v1.7h16.34v-1.7h-16.34zm33.278-13.84h-2.06V35.1h2.06V21.98zm-12.52 5.72c0-1.66 1.18-2.74 2.78-2.74 1.58 0 2.78 1.08 2.78 2.74 0 1.64-1.2 2.74-2.78 2.74-1.6 0-2.78-1.1-2.78-2.74zm7.56 0c0-2.64-2.06-4.52-4.78-4.52s-4.8 1.88-4.8 4.52c0 2.62 2.08 4.52 4.8 4.52 2.72 0 4.78-1.9 4.78-4.52zm-4.76 10.32v-4.24h-2.08v5.92h12.32v-1.68h-10.24z"/>
</svg>
