<svg xmlns="http://www.w3.org/2000/svg" width="346" height="60" fill="none" viewBox="0 0 346 60">
    <path fill="#1877F2" d="M0 16c0-5.6 0-8.4 1.09-10.54.959-1.882 2.488-3.411 4.37-4.37C7.6 0 10.4 0 16 0h314c5.601 0 8.401 0 10.54 1.09 1.882.959 3.411 2.488 4.37 4.37C346 7.6 346 10.4 346 16v28c0 5.6 0 8.4-1.09 10.54-.959 1.882-2.488 3.411-4.37 4.37C338.401 60 335.601 60 330 60H16c-5.6 0-8.4 0-10.54-1.09-1.882-.959-3.411-2.488-4.37-4.37C0 52.4 0 49.6 0 44V16z"/>
    <rect width="223" height="59" x="61.5" y=".5" fill="#1877F2" rx="10"/>
    <path fill="#1877F2" d="M0 0H24V24H0z" transform="translate(76.5 15.5)"/>
    <path fill="#fff" d="M100 27.57c0-6.351-5.149-11.5-11.5-11.5S77 21.219 77 27.57c0 5.74 4.205 10.497 9.703 11.36v-8.036h-2.92V27.57h2.92v-2.534c0-2.882 1.717-4.474 4.344-4.474 1.258 0 2.574.225 2.574.225v2.83h-1.45c-1.429 0-1.874.886-1.874 1.796v2.157h3.19l-.51 3.324h-2.68v8.036c5.498-.863 9.703-5.62 9.703-11.36zM117.32 38.5h2.96v-6h5.26v-2.48h-5.26v-3.86h6.16v-2.48h-9.12V38.5zm13.379.28c1.28 0 2.4-.64 3.38-1.48h.08l.2 1.2h2.4v-6.54c0-3.24-1.46-4.94-4.3-4.94-1.76 0-3.36.66-4.68 1.48l1.06 1.94c1.04-.6 2.04-1.06 3.08-1.06 1.38 0 1.86.84 1.92 1.94-4.52.48-6.46 1.74-6.46 4.14 0 1.9 1.32 3.32 3.32 3.32zm.96-2.3c-.86 0-1.48-.38-1.48-1.26 0-1 .92-1.76 3.66-2.1v2.26c-.72.7-1.34 1.1-2.18 1.1zm12.857 2.3c1.24 0 2.6-.42 3.68-1.36l-1.18-1.94c-.62.52-1.38.9-2.18.9-1.6 0-2.78-1.36-2.78-3.48 0-2.1 1.16-3.48 2.88-3.48.62 0 1.14.26 1.7.74l1.4-1.9c-.82-.7-1.88-1.24-3.26-1.24-3.04 0-5.72 2.16-5.72 5.88 0 3.72 2.36 5.88 5.46 5.88zm10.061 0c1.38 0 2.8-.48 3.9-1.24l-1-1.8c-.8.5-1.6.78-2.52.78-1.66 0-2.86-.96-3.1-2.8h6.9c.08-.26.14-.8.14-1.36 0-3.08-1.6-5.34-4.68-5.34-2.66 0-5.22 2.26-5.22 5.88 0 3.7 2.44 5.88 5.58 5.88zm-2.76-7.02c.22-1.62 1.26-2.46 2.44-2.46 1.44 0 2.12.96 2.12 2.46h-4.56zm15.121 7.02c2.46 0 4.76-2.22 4.76-6.08 0-3.42-1.66-5.68-4.42-5.68-1.1 0-2.22.54-3.1 1.34l.08-1.8v-4.02h-2.94V38.5h2.3l.26-1.18h.08c.9.94 1.98 1.46 2.98 1.46zm-.66-2.42c-.6 0-1.32-.22-2.02-.84V30.6c.76-.78 1.44-1.16 2.2-1.16 1.54 0 2.22 1.18 2.22 3.32 0 2.44-1.04 3.6-2.4 3.6zm12.591 2.42c2.8 0 5.38-2.16 5.38-5.88 0-3.72-2.58-5.88-5.38-5.88s-5.38 2.16-5.38 5.88c0 3.72 2.58 5.88 5.38 5.88zm0-2.4c-1.52 0-2.38-1.36-2.38-3.48 0-2.1.86-3.48 2.38-3.48s2.38 1.38 2.38 3.48c0 2.12-.86 3.48-2.38 3.48zm12.52 2.4c2.8 0 5.38-2.16 5.38-5.88 0-3.72-2.58-5.88-5.38-5.88s-5.38 2.16-5.38 5.88c0 3.72 2.58 5.88 5.38 5.88zm0-2.4c-1.52 0-2.38-1.36-2.38-3.48 0-2.1.86-3.48 2.38-3.48s2.38 1.38 2.38 3.48c0 2.12-.86 3.48-2.38 3.48zm7.839 2.12h2.9v-2.84l1.58-1.8 2.72 4.64h3.18l-4.2-6.58 3.84-4.62h-3.22l-3.82 4.82h-.08v-9.58h-2.9V38.5zm25.561-2.46V33.3h5.58v-2.12h-10.68v-2.06h10.26v-6.14h-12.9v2.1h10.3v1.98h-10.28v6.24h5.08v2.74h-7v2.16h16.68v-2.16h-7.04zm20.739-10.36c0 2.5 0 5.12-.66 8.64l2.62.24c.68-3.78.68-6.3.68-8.88V23.5h-12.9v2.1h10.26v.08zm-11.98 9.98v2.16h16.66v-2.16h-16.66zm33.698-13.84h-2.66v13.22h2.66V21.82zm-12.46 5.84c0-1.52 1.08-2.4 2.44-2.4 1.38 0 2.42.88 2.42 2.4 0 1.48-1.04 2.38-2.42 2.38-1.36 0-2.44-.9-2.44-2.38zm7.44 0c0-2.72-2.18-4.68-5-4.68s-5.02 1.96-5.02 4.68c0 2.68 2.2 4.66 5.02 4.66 2.82 0 5-1.98 5-4.66zm-4.6 10.14v-4.06h-2.64v6.16h12.72v-2.1h-10.08z"/>
</svg>
