<svg xmlns="http://www.w3.org/2000/svg" width="346" height="60" fill="none" viewBox="0 0 346 60">
    <path fill="#FEE500" d="M0 16c0-5.6 0-8.4 1.09-10.54.959-1.882 2.488-3.411 4.37-4.37C7.6 0 10.4 0 16 0h314c5.601 0 8.401 0 10.54 1.09 1.882.959 3.411 2.488 4.37 4.37C346 7.6 346 10.4 346 16v28c0 5.6 0 8.4-1.09 10.54-.959 1.882-2.488 3.411-4.37 4.37C338.401 60 335.601 60 330 60H16c-5.6 0-8.4 0-10.54-1.09-1.882-.959-3.411-2.488-4.37-4.37C0 52.4 0 49.6 0 44V16z"/>
    <rect width="185.993" height="59" x="80.5" y=".498" fill="#FEE500" rx="10"/>
    <path fill="#000" d="M108.5 15.498c-7.179 0-13 4.449-13 9.928 0 3.412 2.253 6.418 5.677 8.209l-1.445 5.21c-.13.461.405.824.816.56l6.32-4.128c.534.05 1.076.078 1.625.078 7.179 0 13-4.45 13-9.929.007-5.479-5.814-9.928-12.993-9.928z" opacity=".902"/>
    <path fill="#000" fill-opacity=".85" d="M138.413 23.558v2.1h5.84c-.06.88-.2 1.68-.38 2.44l-6.44.38.34 2.24 5.34-.52c-1.04 2.02-2.82 3.74-5.84 5.24l1.4 2.04c6.86-3.5 8.2-8.24 8.2-13.92h-8.46zm15.94 5.26h-2.58v-7.04h-2.64v18.4h2.64v-9.18h2.58v-2.18zm2.458-5.26v2.1h5.84c-.06.88-.2 1.68-.38 2.44l-6.44.38.34 2.24 5.34-.52c-1.04 2.02-2.82 3.74-5.84 5.24l1.4 2.04c6.86-3.5 8.2-8.24 8.2-13.92h-8.46zm15.94 5.26h-2.58v-7.04h-2.64v18.4h2.64v-9.18h2.58v-2.18zm5.459-1c0-1.88 1.74-2.98 4.26-2.98 2.54 0 4.28 1.1 4.28 2.98s-1.74 2.98-4.28 2.98c-2.52 0-4.26-1.1-4.26-2.98zm5.58 8.12v-3.12c3.26-.38 5.56-2.26 5.56-5 0-3.08-2.94-5.08-6.88-5.08-3.92 0-6.86 2-6.86 5.08 0 2.74 2.3 4.6 5.54 5v3.12h-7v2.14h16.68v-2.14h-7.04zm22.929.1v-2.74h5.58v-2.12h-10.68v-2.06h10.26v-6.14h-12.9v2.1h10.3v1.98h-10.28v6.24h5.08v2.74h-7v2.16h16.68v-2.16h-7.04zm20.739-10.36c0 2.5 0 5.12-.66 8.64l2.62.24c.68-3.78.68-6.3.68-8.88v-2.18h-12.9v2.1h10.26v.08zm-11.98 9.98v2.16h16.66v-2.16h-16.66zm33.698-13.84h-2.66v13.22h2.66v-13.22zm-12.46 5.84c0-1.52 1.08-2.4 2.44-2.4 1.38 0 2.42.88 2.42 2.4 0 1.48-1.04 2.38-2.42 2.38-1.36 0-2.44-.9-2.44-2.38zm7.44 0c0-2.72-2.18-4.68-5-4.68s-5.02 1.96-5.02 4.68c0 2.68 2.2 4.66 5.02 4.66 2.82 0 5-1.98 5-4.66zm-4.6 10.14v-4.06h-2.64v6.16h12.72v-2.1h-10.08z"/>
</svg>
