<svg width="220" height="75" viewBox="0 0 220 75" fill="none" xmlns="http://www.w3.org/2000/svg">
    <path
        d="M216.739 42.3104L138.218 74.5269C133.87 76.308 129.522 71.8553 131.46 67.5597L143.823 39.5864C144.399 38.2244 144.399 36.7052 143.823 35.3432L131.46 7.36985C129.575 3.07432 133.87 -1.37837 138.218 0.402701L216.739 32.6192C221.087 34.3479 221.087 40.5293 216.739 42.3104Z"
        fill="black" />
    <path
        d="M0 21.0845C0 17.2185 3.13401 14.0845 7 14.0845H145.676C149.542 14.0845 152.676 17.2185 152.676 21.0845V52.7183C152.676 56.5843 149.542 59.7183 145.676 59.7183H6.99999C3.134 59.7183 0 56.5843 0 52.7183V21.0845Z"
        fill="black" />
</svg>
